# xmcd
#
# Track frame offsets:
#	150
#	19365
#	36137
#	50974
#	69529
#	91773
#	112849
#	129348
#	151198
#
# Disc length: 2301 seconds
#
# Revision: 0
# Processed by: cddbd v1.5.2PL0 Copyright (c) Steve Scherf et al.
# Submitted via: EZCDAudioConverter 1.0.8.1
#
DISCID=6e08fb09
DTITLE=Adriano Celentano - Und immer Azzuro
DYEAR=1900
DGENRE=
TTITLE0=Il ragazzo della via Gluck
TTITLE1=Azzuro
TTITLE2=Una festa sui prati
TTITLE3=Soli
TTITLE4=GiornatanNein
TTITLE5=Veronica verrai
TTITLE6=Il temp se ne va
TTITLE7=Cosi corne sei
TTITLE8=Susana
EXTD=
EXTT0=
EXTT1=
EXTT2=
EXTT3=
EXTT4=
EXTT5=
EXTT6=
EXTT7=
EXTT8=
PLAYORDER=
